{"title":"New Years Eve 2011 CAM XViD DTRG","uid":6906663,"size":1645197700,"categoryP":"video","categoryS":"movies","magnet":"?xt=urn:btih:db7f9b00ad33bd91bedb97a0a3fc8e699ec5bd93&amp;dn=New+Years+Eve+2011+CAM+XViD+DTRG&amp;tr=udp%3A%2F%2Ftracker.openbittorrent.com%3A80&amp;tr=udp%3A%2F%2Fopen.demonii.com%3A1337&amp;tr=udp%3A%2F%2Ftracker.coppersurfer.tk%3A6969&amp;tr=udp%3A%2F%2Fexodus.desync.com%3A6969","seeders":1,"leechers":0,"uploader":".BONE.","files":5,"time":1324622862,"description":"Format : AVI\nFormat/Info : Audio Video Interleave\nFile size : 1.53 GiB\nDuration : 1h 48mn\nOverall bit rate : 2 017 Kbps\nWriting library : VirtualDub build 32842/release\n\nVideo\nID : 0\nFormat : MPEG-4 Visual\nFormat profile : Advanced Simple@L5\nFormat settings, BVOP : 1\nFormat settings, QPel : No\nFormat settings, GMC : No warppoints\nFormat settings, Matrix : Default (H.263)\nMuxing mode : Packed bitstream\nCodec ID : XVID\nCodec ID/Hint : XviD\nDuration : 1h 48mn\nBit rate : 1 877 Kbps\nWidth : 624 pixels\nHeight : 338 pixels\nDisplay aspect ratio : 16:9\nFrame rate : 29.970 fps\nColor space : YUV\nChroma subsampling : 4:2:0\nBit depth : 8 bits\nScan type : Progressive\nCompression mode : Lossy\nBits/(Pixel*Frame) : 0.297\nStream size : 1.42 GiB (93%)\nWriting library : XviD 64\n\nAudio\nID : 1\nFormat : MPEG Audio\nFormat version : Version 1\nFormat profile : Layer 3\nCodec ID : 55\nCodec ID/Hint : MP3\nDuration : 1h 48mn\nBit rate mode : Constant\nBit rate : 128 Kbps\nChannel(s) : 2 channels\nSampling rate : 44.1 KHz\nCompression mode : Lossy\nStream size : 99.1 MiB (6%)\nAlignment : Split accross interleaves\nInterleave, duration : 33 ms (1.00 video frame)\n &lt;a href=&quot;\nhttp://www.imdb.com/title/tt1598822/&quot; rel=&quot;nofollow&quot; target=&quot;_NEW&quot;&gt;\nhttp://www.imdb.com/title/tt1598822/&lt;/a&gt;\n\n\nRatings: 4.9/10 from 3,755 users Metascore: 22/100 \nReviews: 47 user | 97 critic | 30 from Metacritic.com\n\nThe lives of several couples and singles in New York intertwine over the course of New Year's Eve.\nDirector:\nGarry Marshall\nWriter:\nKatherine Fugate\nStars:\nSarah Jessica Parker, Jessica Biel and Ashton Kutcher\n\n\n &lt;a href=&quot;\nhttp://img13.imageshack.us/img13/7561/vlcsnap2011122018h11m30.png&quot; rel=&quot;nofollow&quot; target=&quot;_NEW&quot;&gt;\nhttp://img13.imageshack.us/img13/7561/vlcsnap2011122018h11m30.png&lt;/a&gt;\n &lt;a href=&quot;\nhttp://img819.imageshack.us/img819/8687/vlcsnap2011122018h08m34.png&quot; rel=&quot;nofollow&quot; target=&quot;_NEW&quot;&gt;\nhttp://img819.imageshack.us/img819/8687/vlcsnap2011122018h08m34.png&lt;/a&gt;\n &lt;a href=&quot;\nhttp://img828.imageshack.us/img828/3382/vlcsnap2011122018h11m53.png&quot; rel=&quot;nofollow&quot; target=&quot;_NEW&quot;&gt;\nhttp://img828.imageshack.us/img828/3382/vlcsnap2011122018h11m53.png&lt;/a&gt;\n &lt;a href=&quot;\nhttp://img577.imageshack.us/img577/6493/vlcsnap2011122018h09m06.png&quot; rel=&quot;nofollow&quot; target=&quot;_NEW&quot;&gt;\nhttp://img577.imageshack.us/img577/6493/vlcsnap2011122018h09m06.png&lt;/a&gt;\n\n\nSource Used\n\n\n\n\nVideo........Unknown.............Thanks\n\nAudio.........Unknown..............Thanks \n\n+ A very clever person who cleaned and filtered the audio.......Thank you mate \n\n\n\n\nFiltered the video but thats blah blah ...........pretty good release this one \n","torrent":{"xt":"urn:btih:db7f9b00ad33bd91bedb97a0a3fc8e699ec5bd93","amp;dn":"New+Years+Eve+2011+CAM+XViD+DTRG","amp;tr":["udp%3A%2F%2Ftracker.openbittorrent.com%3A80","udp%3A%2F%2Fopen.demonii.com%3A1337","udp%3A%2F%2Ftracker.coppersurfer.tk%3A6969","udp%3A%2F%2Fexodus.desync.com%3A6969"],"infoHash":"db7f9b00ad33bd91bedb97a0a3fc8e699ec5bd93","infoHashBuffer":{"type":"Buffer","data":[219,127,155,0,173,51,189,145,190,219,151,160,163,252,142,105,158,197,189,147]},"announce":[],"urlList":[]}}